<svg id="calendar" xmlns="http://www.w3.org/2000/svg" viewBox="0 0 32 32">
  <path d="M27.2 3.2H24V1.6c0-.9-.7-1.6-1.6-1.6s-1.6.7-1.6 1.6v1.6h-9.6V1.6c0-.9-.7-1.6-1.6-1.6S8 .7 8 1.6v1.6H4.8C2.1 3.2 0 5.3 0 8v19.2C0 29.9 2.1 32 4.8 32h22.4c2.7 0 4.8-2.1 4.8-4.8V8c0-2.7-2.1-4.8-4.8-4.8Zm1.6 24c0 .9-.7 1.6-1.6 1.6H4.8c-.9 0-1.6-.7-1.6-1.6V16h25.6v11.2Zm0-14.4H3.2V8c0-.9.7-1.6 1.6-1.6H8V8c0 .9.7 1.6 1.6 1.6s1.6-.7 1.6-1.6V6.4h9.6V8c0 .9.7 1.6 1.6 1.6S24 8.9 24 8V6.4h3.2c.9 0 1.6.7 1.6 1.6v4.8Z"/>
</svg>