<svg id="github" xmlns="http://www.w3.org/2000/svg" viewBox="0 0 32 32">
  <path d="M16 0C7.2 0 0 7.3 0 16.4 0 23.5 4.4 29.7 10.9 32c.8.1 1.1-.3 1.1-.8v-3.1c-4 .8-5.1-1-5.4-1.9-.4-.9-.9-1.7-1.6-2.3-.6-.3-1.4-1.1 0-1.1 1 .1 2 .7 2.5 1.7.9 1.7 3 2.3 4.7 1.4 0-.8.4-1.6 1-2.2-3.6-.4-7.3-1.8-7.3-8.1 0-1.6.6-3.2 1.6-4.4-.5-1.4-.4-3 .2-4.3 0 0 1.3-.4 4.4 1.7 2.6-.7 5.4-.7 8 0 3.1-2.1 4.4-1.7 4.4-1.7.6 1.4.6 2.9.2 4.3 1.1 1.2 1.7 2.8 1.6 4.4 0 6.3-3.7 7.7-7.3 8.1.8.8 1.2 1.9 1.1 3v4.5c0 .5.3.9 1.1.8 8.4-2.9 12.9-12.2 10.1-20.8C29 4.5 22.9 0 16 0Z"/>
</svg>