<svg id="wave-1" xmlns="http://www.w3.org/2000/svg" viewBox="0 0 4000 342">
    <path d="M4000,342H0V79.8C148.1,27.3,297.7-25.2,445.8,13.2c71.7,18.6,143.3,58.5,214.9,98.3,76.2,42.5,152.4,84.9,228.9,101.7,113.3,24.8,226.2-7,339.3-38.9,34.8-9.8,69.6-19.6,104.4-27.8,68.8-16.1,145.9-17.4,223.3-18.6,89.3-1.4,178.9-2.9,255.9-27.2,143.8-45.5,262.3-42.9,410.4-20.8,49.6,7.4,99.2,19.7,148.7,32,98.3,24.5,196.5,48.9,295.1,34.6,12.5-1.8,25-3.6,37.5-5.4,135.9-19.4,272.7-38.9,408.3-90.5,145.8-55.4,302.9-41.6,437.3-29.7,2.1.2,4.3.4,6.4.6,151.7,13.3,295.6,53.3,443.8,150v170.5Z"/>
</svg>