<svg id="avatar" xmlns="http://www.w3.org/2000/svg" viewBox="0 0 400 400">
    <defs>
        <mask id="mask" x="0" y="0" width="400" height="487.1" maskUnits="userSpaceOnUse" style="mask-type:luminance">
            <path fill="#FFF"
                  d="M198.5,400c110.5,0,200-89.5,200-200S308.9,0,198.5,0-1.5,89.5-1.5,200s89.5,200,200,200Z"/>
        </mask>
    </defs>
    <g mask="url(#mask)">
        <g id="avatar">
            <g id="body">
                <g id="neck">
                    <path fill="#fee4bf"
                          d="M309.1 304.2c-20.3-15.4-49-24.8-49-24.8 2-30.7 6.6-56.9 6.6-56.9-43.4-3.7-94.6 46.9-94.6 46.9l-5.3 22.5c-49.9 12.8-71.5 56.2-79 76.5.9.7 2 1.3 2.9 2 1.1.7 2 1.3 3 1.9.9.6 1.7 1.1 2.7 1.6.1.1.2.1.4.2 3 1.9 6.3 3.6 9.4 5.2.9.6 2 1.1 2.9 1.5 0 0 .1.1.2.1 1.1.6 2.1 1.1 3.2 1.6 2.1 1.1 4.4 2 6.5 2.9 1.1.6 2.2.9 3.4 1.3l3.4 1.3 3.4 1.3h.1c1.1.4 2.2.8 3.4 1.2 2.4.8 4.9 1.6 7.3 2.4.8.2 1.7.6 2.6.8 2.6.8 5 1.5 7.6 2 .9.2 1.9.4 2.9.7 2.4.6 4.9 1.1 7.3 1.6.6.1.9.1 1.5.2.8.1 1.7.2 2.6.4 1.2.1 2.2.4 3.5.6.6.1 1.1.1 1.6.2.7.1 1.5.2 2.2.2 2.1.2 4.4.6 6.5.8.7.1 1.5.1 2.1.2h.1c.9.1 1.9.1 2.8.2s1.9.1 2.8.1 1.2.1 1.7.1c1.1 0 2 .1 2.9.1 1.3 0 2.6.1 3.9.1h6.7c56.1-.8 106.8-24.6 142.7-62.5 0 0 0-.1.1-.1-3.9-7.8-19.3-22.5-35.2-34.6Z"/>
                    <path fill="#efbda5"
                          d="M163.2 299.8c25.4-1.3 44.3-5 64.4-41.2-17 15-37.2 20.8-58.4 23.4l-2.8 12.2c-.6 2.5-1.7 4.4-3.2 5.6Z"/>
                </g>
                <g id="clothes">
                    <path fill="#f5f5f5"
                          d="M318.9 310.4s25.9 14.2 40 54.9 13.8 101.2 13.8 101.2H68.3s8.5-99.8 38.7-133.2c0 0-2 29.9 57 32.9s130.1-15.7 131.9-26.7c1.7-11.1 23-29.1 23-29.1Z"/>
                    <path fill="#444"
                          d="M94.6 468.9c83.7 38.7 221.6 3.7 221.6 3.7s2.8-33.9-7.3-95.2c-.4-2.8-.8-5.6-1.1-8.2-2.9-27.8 3.9-46.8 11.1-58.8 0-3-3.2-5.2-6.8-8.3-1.5-1.2-3.5-1.3-4.5-.6-1.9 2.7-3.6 5.4-5 8.2-14.9 27.6-44.3 42.2-75.5 45.4-42.6 4.3-60.3 3.6-81.5-1.1-20.4-4.5-29.6-16.6-23.9-36.5.1-.2.1-.7.2-1.1-3.6-.2-12 6.6-14.8 16.9-2.9 12.7-5.2 26.9-6.9 41.2-5.7 46.7-5.6 94.5-5.6 94.5Z"/>
                    <path fill="#f5f5f5"
                          d="M171 374.7c-2.5 0-4.5-2-4.5-4.5s2-4.5 4.5-4.5 4.5 2 4.5 4.5c.1 2.5-1.9 4.5-4.5 4.5Zm-1 16.8c-2.5 0-4.5-2-4.5-4.5s2-4.5 4.5-4.5 4.5 2 4.5 4.5-2 4.5-4.5 4.5Z"/>
                </g>
            </g>
            <g id="face">
                <path fill="#fee4bf"
                      d="M110.6 139.3c-2.4 11.2-3.6 20.3 2.9 50.1 6.5 29.9-6.1 59.7 25.4 87.1 21.2 18.4 58.3 21.8 87.8 1.7 10-6.8 19.2-16.2 26.7-28.7 5.8-9.7 12.7-18.9 20.3-27.3 10.5-11.4 23.2-34.5 16.9-75.3C280.5 80.5 214.7 73 176 80.2c-38.8 7.3-58.9 29.5-65.4 59.2Z"/>
                <path fill="#423232"
                      d="M247.5 211.1c-.7 0-1.3-.3-1.7-.9-.6-.9-.3-2.1.6-2.8.2-.1 3.8-2.5 3.4-6.5-.6-4.7-.8-11.3 4.1-13.3 4-1.7 6.6-.4 8.1.8 2.8 2.4 3.5 6.7 3.1 8.1-.2 1.1-1.3 1.7-2.5 1.5-1-.2-1.7-1.2-1.5-2.2 0-.7-.6-3.4-2-4.4-.3-.2-1.3-1-3.7 0-1.8.8-2.4 3.8-1.7 9.2.7 6.5-4.9 10.2-5.2 10.3-.3.2-.8.3-1.1.3Z"/>
                <path fill="#efbda5"
                      d="M145.8 222.1s-5 .2-9.9-5.5c-2.7-3.2-4.9-7.2-3.5-8.4 1.5-1.3 25.5 2.4 27.2 5.6 1.6 3.1-7.7 8.3-13.9 8.3Z"/>
                <path fill="#423232"
                      d="M147.1 224.3h-.3c-6.8-1-12.5-4.8-15.1-10.2-1.9-3.8-1.9-7.8 0-11 7.7-13.4 8.2-25.8 8.2-25.9 0-1.1.9-1.9 2-1.9s2 .9 1.9 2c0 .6-.3 13.3-8.6 27.8-1.1 2-1.1 4.7.1 7.3 2 4.3 6.6 7.2 12.1 8 1.1.1 1.9 1.1 1.7 2.2-.1.9-.9 1.7-1.9 1.7Z"/>
                <path fill="#f2a5b2"
                      d="M214 228.8c-7.6 0-13.8-5-13.8-11.3s6.2-11.3 13.8-11.3 13.8 5 13.8 11.3-6.2 11.3-13.8 11.3Zm-98.4-22.4c.4 7.5.2 14.8.8 22.2 5.8-1.3 10.1-5.7 10.1-11 .1-5.6-4.6-10.1-10.9-11.2Z"
                      opacity=".4"/>
                <path fill="#423232"
                      d="M199.8 180.8c-1.1-3.9-7.6-6.7-13.4-5.8-6.7 1-10.6 6.5-10.8 6.7-.7.9-.4 2.1.4 2.8.3.2.8.3 1.1.3.7 0 1.2-.3 1.7-.8 0 0 2-2.7 5.3-4.1-.1.6-.2 1.1-.1 1.7v3.7c.2 3 2.9 5.5 6.2 5.4 3.2-.1 5.6-2.8 5.4-6.1v-3.5c.2.3.4.6.4.9.3 1 1.5 1.7 2.5 1.3s1.7-1.5 1.3-2.6Zm-60 3.3c0-2.1-1.7-6.3-8.2-6.3s-9 5.6-9 5.8c-.4 1 0 2.1 1 2.7.2.1.6.2.8.2.8 0 1.5-.4 1.8-1.1 0-.1.7-1.3 2-2.4-.1.3-.1.8-.1 1.1v3.5c.2 2.9 2.8 5.2 5.7 5s5.2-2.7 5-5.6v-1.3c.6-.4.9-1 .9-1.7Zm32-22.6c-2.8.9-5.6-1.6-5-4.7.2-1.6.9-3.2 2.2-4.4 4-3.6 20.5-6.8 30.6-2.1 8.7 4.3-15 6.8-27.8 11.2Zm-39.9 2.1c2.2.8 4.7-1.6 4.3-4.4-.1-1.5-.7-2.9-1.7-4-3.2-3.2-14.1-5.7-21.1-.8-6.1 4 8.1 5.3 18.5 9.2Zm31.5 81c-2.9 0-5.7-.7-8.1-2-.9-.6-1.2-1.8-.7-2.7.6-.9 1.8-1.2 2.7-.7 6.7 4 19.2-.8 24.8-7.5.7-.9 2-1 2.8-.2.9.7 1 2 .2 2.8-4.8 5.8-13.8 10.3-21.7 10.3Z"/>
            </g>
            <g id="hair" fill="#423232">
                <path d="M87.4 246.9c10.1-19.8-.6-23.8 5.6-38.9 9.1-22.4 8.4-25.5 7.3-30.7-8-37.8-13.2-78.5 33.5-102.6 52.5-27.2 126.1-16.1 153.4 17.5 23.2 28.2 16.4 43 22.3 63.1 5.7 19.4 31.6 19.8 19.7 59.8-6.1 20.3 18.2 30.9 12.8 65.1-37.2 16.7-76 24.5-115.6 26.9-10.8-26.6 22.5-32.5 23-72.2 0-2.7-.1-5.2-.4-7.6 37-11.7 30.9-51.1 14.2-53.2-11.7-1.5-17.7 5-20.8 10.5-.2.8-.7 1.5-1.1 2.2-5 8.6-31.8.8-49.9-20.2-19.4-22.4-17.8-20.6-27.6-34.2-19.6-26.9-19 .8-24 4.5-6.9 5.2-2.6 9.1-13.3 26.9-4.8 8-13.6 15.9-11.4 25.3 6.5 29.7-6.1 59.7 25.4 87.1 7.1 6.2 16.9 11.4 28.6 13.8-.6 4-2.1 9.9-5.7 16.1-27.3-1.9-54.8-5.7-82.2-10.4-4.3-14.6-2.1-32.2 6.4-48.9Z"/>
                <path d="M111 188.9s-35.2-11.4-21.8-45.4c7.3-18.7 7.7-39.9 15.4-53.4 10.5-18.8 27.3-24.4 52.1-19.2 42.7 9-26.6-1.3-30.8 29.5-4.1 30.8-14.8 88.5-14.8 88.5Z"/>
            </g>
            <g id="glasses">
                <path fill="#b7aea9"
                      d="M134.3 208.4s-1.6 9.1-12.1 13.6c-2.7 1.1-5.5-.7-5.5-3.6.1 0 16.9-9 17.6-10Zm25.4-21.8s-8.5-8.5-12.8-9.4l11.3 2.7 1.5 6.7Zm57 21.8s-4.9 11.2-19.7 13.9c-14.8 2.8-28.2-7.8-34.5-25.8 0 0 5 16.6 25.3 19.6 20.1 3.4 28.9-7.7 28.9-7.7Z"
                      opacity=".6"/>
                <g id="right_lens">
                    <path fill="#dbc3ed"
                          d="M192.8 148.6c18.8 0 34.2 15.7 34.3 35 0 9.1-3.4 17.4-8.9 23.3l-48.4-49c5.9-5.8 14-9.3 23-9.3Z"
                          opacity=".3"/>
                    <path fill="#c4add8"
                          d="m169.9 157.9 48.4 49c-6.2 6.8-14.8 11-24.4 11-18.5 0-33.7-15.4-34.3-34.4-.2-10.1 3.8-19.2 10.3-25.5Z"
                          opacity=".2"/>
                </g>
                <g id="left_lens">
                    <path fill="#dbc3ed"
                          d="M114.7 148.6c14.2 0 26.2 15.7 26.8 35 .2 7.7-1.5 14.8-4.4 20.5l-42.2-41.9c4.4-8.3 11.7-13.6 19.8-13.6Z"
                          opacity=".3"/>
                    <path fill="#c4add8"
                          d="m94.9 162 42.2 41.9c-4.4 8.4-11.7 13.9-19.9 13.9-14 0-26-15.4-26.8-34.4-.3-8 1.5-15.5 4.5-21.4Z"
                          opacity=".2"/>
                </g>
                <path fill="#0a0e0f"
                      d="M245.7 177.7h-17c-2.8-17.7-17.8-31.1-35.7-31.1s-18.5 3.8-25.1 10.6c-5.4 5.5-8.7 12.4-9.9 19.9-3.7-1.2-11-3.1-15.2-1.3-3.1-16.7-14.7-29.2-28-29.2s-11.8 2.6-16.5 7.4c-6.7 6.9-10.4 18-9.9 29.6.8 20.1 13.8 36.3 28.8 36.3s11.7-2.6 16.2-7.3c6.7-6.9 10.4-17.6 10.1-29.1 0-1-.1-1.9-.2-2.9h.1c.1-.4.2-.7.9-1 2.7-1.2 9.1.2 13.2 1.7v2.4c.4 20.1 16.7 36.3 36.3 36.3s35.3-16.4 35.3-36.4v-1.7h16.6c1.1 0 2-.9 2-2s-.9-2-2-2Zm-115.1 32c-3.9 4-8.5 6.1-13.4 6.1-12.9 0-24.1-14.6-24.8-32.5-.4-10.5 2.8-20.4 8.9-26.7 3.9-4 8.6-6.2 13.6-6.2 13.2 0 24.3 14.8 24.8 32.9.2 10.4-3.1 20.3-9 26.3Zm63.2 6.2c-17.4 0-31.9-14.6-32.3-32.5-.2-8.9 3-17.1 9.1-23.4 5.9-6.1 13.8-9.4 22.3-9.4 16.2 0 29.8 12.5 31.9 28.7 0 .2-.1.3-.1.6s.1.7.2 1c.1.9.1 1.8.1 2.8.1 17.7-14 32.3-31.3 32.3Z"/>
            </g>
        </g>
    </g>
</svg>