<svg id="logo-nv" xmlns="http://www.w3.org/2000/svg" viewBox="0 0 600 600">
    <path d="M324.2 196.59c-.22-1.18-.47-2.34-.74-3.49-.55-2.3-1.21-4.54-1.98-6.73-.39-1.09-.8-2.18-1.24-3.24-.66-1.61-1.41-3.18-2.2-4.73-1.3-2.55-2.76-5.03-4.4-7.42-1.65-2.43-3.58-4.76-5.79-7s-4.7-4.39-7.46-6.45c-1.84-1.37-3.81-2.7-5.9-3.99a39.6 39.6 0 0 0-2.94-1.63c-.07-.04-.14-.07-.21-.11-.97-.48-1.98-.93-3.02-1.35-.12-.05-.24-.1-.35-.15-1.02-.4-2.07-.77-3.14-1.11-.15-.05-.31-.1-.46-.15a54.58 54.58 0 0 0-3.29-.9c-.18-.04-.36-.09-.54-.13-1.13-.26-2.28-.49-3.47-.69-.19-.03-.39-.06-.58-.1-1.2-.19-2.42-.36-3.68-.5l-.57-.06a80.42 80.42 0 0 0-3.93-.3c-.17 0-.35-.01-.52-.02-1.38-.06-2.79-.1-4.23-.1h-.12c-.72 0-1.45 0-2.18.02-1.65 0-3.28.06-4.88.18-2.41.18-4.76.49-7.07.94-1.54.3-3.05.66-4.54 1.08-.75.21-1.48.43-2.22.67-5.87 1.91-11.37 4.78-16.51 8.61-3.85 2.84-7.65 6.46-11.39 10.87-.53.63-1.07 1.28-1.6 1.94-1.06 1.32-2.1 2.74-3.1 4.24s-1.97 3.09-2.9 4.76c-1.87 3.35-3.61 7.05-5.23 11.09-2.83 7.09-5.15 15.29-6.96 24.63-.26 1.33-.51 2.69-.75 4.07-1.91 11.04-2.86 23.92-2.86 38.63-.11-.99-.25-2.28-.43-3.85-.29-2.62-.66-6.05-1.12-10.28-.74-6.77-2.28-14.57-4.62-23.4-.38-1.44-.8-2.89-1.24-4.34-.56-1.89-1.16-3.78-1.81-5.69-.77-2.25-1.59-4.51-2.48-6.79a198.19 198.19 0 0 0-4.38-10.34c-1.6-3.48-3.41-6.84-5.44-10.09-.68-1.08-1.38-2.15-2.1-3.21a88.306 88.306 0 0 0-4.64-6.19c-.82-1.01-1.67-2-2.53-2.98-.87-.98-1.76-1.95-2.68-2.91-.91-.94-1.84-1.87-2.8-2.77-.12-.11-.25-.22-.37-.33-3.46-3.2-7.27-6.1-11.41-8.72a81.356 81.356 0 0 0-4.91-2.91 97.51 97.51 0 0 0-7.81-3.81c-1.29-.56-2.61-1.07-3.95-1.56-.44-.16-.9-.29-1.34-.44-.92-.31-1.84-.62-2.79-.89-.54-.16-1.1-.3-1.65-.45-.88-.23-1.76-.46-2.66-.67-.6-.14-1.2-.26-1.81-.38-.89-.18-1.78-.35-2.69-.51-.63-.11-1.26-.21-1.9-.3-.92-.14-1.86-.26-2.8-.37-.65-.08-1.29-.15-1.95-.21-.98-.09-1.99-.17-2.99-.23-.64-.04-1.27-.09-1.91-.12-1.11-.05-2.25-.08-3.38-.1-.56 0-1.11-.03-1.68-.03h-.33c-1.61 0-3.24.03-4.9.1-4.33.22-8.45.65-12.37 1.28s-7.63 1.48-11.13 2.52c-1.75.52-3.45 1.1-5.1 1.73-4.95 1.88-9.43 4.23-13.44 7.05-10.72 7.51-19.01 15.67-24.88 24.5a101.6 101.6 0 0 0-4.9 7.95c-4.51 8.17-7.87 17-10.07 26.49-1.54 7.62-2.9 15.34-4.07 23.16-.78 5.22-1.48 10.48-2.09 15.78-.31 2.65-.59 5.32-.86 8-.53 5.35-.98 10.75-1.35 16.2-.18 2.36-.35 4.74-.5 7.17-1.05 16.95-1.24 35.54-.6 55.75.73 23.11 3.89 46.29 9.47 69.54.29 1.18.61 2.34.95 3.49.68 2.29 1.45 4.52 2.31 6.68a70.573 70.573 0 0 0 8.19 15.01c.64.89 1.32 1.77 2.03 2.64 1.13 1.39 2.35 2.76 3.67 4.1 3.58 3.62 7.84 7.04 12.8 10.26.82.53 1.68 1.03 2.55 1.5.11.06.21.12.32.18.83.44 1.7.85 2.58 1.24.15.07.31.13.46.2.88.37 1.77.71 2.69 1.03.16.06.32.11.49.16.94.31 1.91.6 2.89.86.12.03.24.06.37.09 1.03.26 2.08.49 3.15.69.03 0 .05.01.08.02 1.09.2 2.2.36 3.34.5l.45.06c1.09.12 2.21.22 3.34.28l.6.03c1.13.06 2.29.09 3.47.09h.64c1.12 0 2.25-.03 3.41-.08 1.2.07 2.38.1 3.56.11.15 0 .3.01.44.01.24 0 .48-.01.72-.01.36 0 .72-.01 1.07-.02.48-.01.96-.04 1.44-.06l1.04-.06c.49-.03.97-.08 1.46-.13.33-.03.66-.06.99-.1.51-.06 1.02-.13 1.52-.2l.88-.12c.62-.1 1.23-.21 1.84-.33l.52-.09c.78-.16 1.55-.33 2.31-.53l.68-.18c.54-.14 1.07-.29 1.6-.44.29-.09.58-.19.88-.28.46-.15.92-.29 1.37-.45.31-.11.62-.23.93-.34.43-.16.86-.32 1.28-.49.31-.13.63-.26.94-.39.41-.18.83-.36 1.24-.54.31-.14.62-.29.93-.44.41-.2.81-.4 1.21-.6.3-.16.61-.31.91-.48.41-.22.81-.44 1.21-.67.29-.17.58-.33.87-.5.42-.25.83-.51 1.24-.77.27-.17.54-.33.8-.51.45-.3.9-.61 1.35-.92.22-.15.44-.3.66-.46.66-.48 1.32-.97 1.97-1.48 2.41-1.82 4.77-3.99 7.07-6.51.75-.82 1.49-1.68 2.22-2.57.85-1.03 1.7-2.1 2.53-3.23.54-.73 1.07-1.48 1.61-2.26 1.06-1.55 2.09-3.19 3.09-4.94 1.5-2.62 2.93-5.47 4.28-8.55 1.36-3.08 2.64-6.38 3.85-9.92.81-2.35 1.56-4.83 2.27-7.42 1.06-3.89 2-8.05 2.84-12.48.28-1.48.54-2.98.79-4.52.5-3.07.96-6.26 1.36-9.58.6-4.97 1.03-10.27 1.29-15.89.17-3.75.26-7.65.28-11.7.02-6.07-.13-12.47-.46-19.21.07.59.17 1.34.3 2.24.38 2.71 1.02 6.82 1.9 12.33.15.92.31 1.86.48 2.82.35 1.91.77 3.9 1.24 5.96s1 4.19 1.6 6.4 1.24 4.49 1.96 6.84c.36 1.18.73 2.37 1.11 3.59 1.16 3.64 2.46 7.36 3.9 11.15.76 2.01 1.58 4.04 2.43 6.08 1.82 4.39 3.81 8.88 6 13.46 2.57 5.37 5.48 10.51 8.75 15.4 1.63 2.45 3.35 4.83 5.16 7.16s3.7 4.59 5.68 6.8c7.92 8.83 17.46 16.12 28.62 21.86.68.35 1.37.69 2.07 1.02.23.11.47.21.7.31.47.21.94.43 1.41.63.28.12.57.23.85.35.43.18.87.36 1.31.53.31.12.62.23.93.35.42.16.85.32 1.28.47.32.11.65.22.98.33.42.14.85.28 1.27.42.34.11.68.2 1.02.31a61.601 61.601 0 0 0 2.33.65c.43.11.86.23 1.29.33.36.09.72.17 1.08.25.43.1.87.2 1.31.29.37.08.74.15 1.11.23.44.09.88.17 1.33.25.38.07.76.13 1.14.2.45.07.89.15 1.34.21.39.06.77.11 1.16.17l1.37.18c.39.05.78.09 1.17.14.47.05.93.1 1.41.14.4.04.79.07 1.19.11.48.04.96.07 1.44.1.4.03.8.05 1.21.07.49.03.98.05 1.47.07.41.02.81.03 1.22.04l1.5.03c.41 0 .82.01 1.23.01h.33c.73 0 1.46 0 2.19-.02 1.11.1 2.22.15 3.32.19.3 0 .61.02.91.02.34 0 .68.02 1.02.02.46 0 .92-.03 1.39-.04.39 0 .78-.01 1.17-.03.91-.04 1.83-.11 2.74-.19.22-.02.44-.03.66-.05 1.12-.12 2.24-.27 3.36-.45.31-.05.62-.12.93-.17.81-.15 1.62-.3 2.42-.48.4-.09.8-.19 1.2-.29.73-.18 1.45-.37 2.18-.58.4-.12.81-.23 1.21-.36.76-.24 1.51-.49 2.27-.76.35-.12.69-.24 1.04-.37 1.09-.41 2.18-.84 3.26-1.32.95-.44 1.92-.92 2.89-1.45 1.94-1.05 3.92-2.26 5.94-3.64 1.01-.69 2.03-1.42 3.06-2.19 3.59-2.7 7.02-6.08 10.28-10.14.47-.58.93-1.17 1.39-1.78 2.75-3.64 5.34-7.86 7.76-12.67.81-1.6 1.6-3.27 2.37-5 .39-.86.76-1.75 1.13-2.65 1.48-3.61 2.82-7.54 4.04-11.78.3-1.06.6-2.14.89-3.24.58-2.2 1.12-4.48 1.64-6.83 2.8-13.83 5.12-28.3 6.97-43.39.67-5.47 1.29-11.02 1.83-16.65.73-9.12 1.28-18.89 1.65-29.31.37-10.41.55-21.47.55-33.17 0-23.4-2.5-48.05-7.49-73.96Z"/>
    <path d="M599.5 203.7c-.74-9.86-2.86-18.91-6.39-27.15-3.52-8.24-8.74-15.38-15.63-21.41-6.9-6.03-16.07-10.38-27.52-13.02-6.37-1.4-12.37-2.1-18-2.1-5.01 0-9.72.55-14.14 1.66-9.4 2.36-17.83 6.33-25.32 11.92-7.48 5.6-14.02 12.29-19.59 20.09-5.58 7.8-10.28 16.12-14.09 24.95-9.4 20.61-16 44.59-19.81 71.97-4.99-26.49-12.33-49.74-22.01-69.76-4.11-8.53-8.96-16.7-14.53-24.5-5.58-7.8-12.04-14.49-19.37-20.09-7.34-5.59-15.49-9.64-24.44-12.14-5.25-1.46-10.83-2.2-16.74-2.2-4.16 0-8.49.36-12.98 1.09-14.38 2.65-25.91 7.06-34.56 13.25-8.66 6.18-15.12 13.54-19.37 22.08-4.26 8.54-6.75 17.81-7.48 27.82-.74 10.01-.44 20.02.88 30.02 1.32 10.01 3.37 19.72 6.16 29.14 2.79 9.42 5.35 17.66 7.71 24.73 2.35 7.36 5.57 16.63 9.69 27.82 4.11 11.19 9.25 23.03 15.41 35.54 6.16 12.51 13.35 25.1 21.57 37.75a189.136 189.136 0 0 0 28.62 34.44c10.86 10.31 23.04 18.62 36.54 24.95 13.5 6.33 28.47 9.49 44.91 9.49 11.45 0 22.23-2.14 32.36-6.4 10.13-4.26 19.59-9.93 28.4-17 8.81-7.06 16.95-15.16 24.44-24.28 7.48-9.12 14.16-18.39 20.03-27.82 14.09-22.08 26.27-47.24 36.54-75.5 10.27-27.66 16.43-52.98 18.49-75.94.88-9.71.95-19.5.22-29.36Zm-9.07 28.56c-1.98 22.07-8.02 46.85-17.97 73.64l-.02.06c-10.01 27.53-22.02 52.35-35.68 73.76l-.05.08c-5.66 9.08-12.17 18.12-19.36 26.88-7.06 8.6-14.84 16.34-23.13 22.99-8.13 6.53-16.98 11.82-26.28 15.74-8.99 3.79-18.72 5.71-28.91 5.71-15.06 0-28.9-2.91-41.14-8.65a129.333 129.333 0 0 1-34.2-23.35 181.203 181.203 0 0 1-27.28-32.83c-7.98-12.28-15.06-24.68-21.05-36.84-6.01-12.2-11.07-23.87-15.04-34.68-4.04-10.97-7.25-20.21-9.56-27.45l-.04-.11c-2.3-6.91-4.86-15.13-7.62-24.44-2.64-8.9-4.62-18.24-5.87-27.78-1.24-9.37-1.52-18.86-.83-28.21.64-8.79 2.85-17.03 6.58-24.5 3.58-7.18 9.16-13.51 16.58-18.81 7.53-5.38 17.93-9.32 30.92-11.72 3.96-.64 7.82-.96 11.46-.96 5.07 0 9.9.63 14.34 1.87 7.82 2.19 15.03 5.77 21.44 10.65 6.6 5.03 12.5 11.15 17.53 18.19a158.34 158.34 0 0 1 13.76 23.21c9.29 19.21 16.45 41.93 21.28 67.54l17.54-.42c3.67-26.39 10.1-49.78 19.1-69.51l.07-.17c3.54-8.2 7.97-16.04 13.16-23.3 5.01-7.01 10.96-13.11 17.68-18.14 6.51-4.86 13.96-8.36 22.16-10.42 3.69-.93 7.72-1.39 11.98-1.39 4.95 0 10.35.63 16.05 1.89 9.92 2.3 17.87 6.02 23.62 11.04 5.86 5.13 10.34 11.26 13.31 18.22 3.12 7.3 5.03 15.48 5.69 24.32.69 9.36.62 18.75-.21 27.91Z"/>
</svg>