<svg id="bubbles-error-404" xmlns="http://www.w3.org/2000/svg" viewBox="0 0 540 700">
    <circle cx="442" cy="408" r="98"/>
    <circle cx="262" cy="514" r="74"/>
    <circle cx="358" cy="602" r="38"/>
    <circle cx="304.5" cy="675.5" r="24.5"/>
    <path d="M389.6 194.8c0 107.7-87.3 195-195 195s-195-87.3-195-195 87.3-195 195-195 195 87.3 195 195Z"/>
    <path d="M141.9 219h-12.5v23.5H118V219H77.9v-8.7l28.3-66.2 9.8 4.2-25.6 61.2h27.8l1-27.4h10.2v27.4h12.5v9.6Zm52.1-75c10.3 0 18.1 4.3 23.4 12.9 5.4 8.5 8.1 20.9 8.1 37s-2.7 28.6-8.1 37.3c-5.3 8.5-13.1 12.8-23.4 12.8s-18.1-4.3-23.5-12.8c-5.3-8.6-8-21.1-8-37.3s2.7-28.5 8-37c5.4-8.6 13.3-12.9 23.5-12.9Zm0 9.6c-12.8 0-19.2 13.5-19.2 40.4s6.4 40.5 19.2 40.5 19.2-13.5 19.2-40.5-6.4-40.4-19.2-40.4Zm0 31.2c2.6 0 4.8.9 6.6 2.7 1.8 1.8 2.7 3.9 2.7 6.5s-.9 4.8-2.7 6.6c-1.8 1.8-4 2.7-6.6 2.7s-4.8-.9-6.6-2.7c-1.7-1.8-2.5-4-2.5-6.6s.8-4.7 2.5-6.5c1.8-1.8 4-2.7 6.6-2.7ZM310 219h-12.5v23.5h-11.4V219H246v-8.7l28.3-66.2 9.8 4.2-25.6 61.2h27.8l1-27.4h10.2v27.4H310v9.6Z"
          fill="black"/>
</svg>