<svg id="no-photo" xmlns="http://www.w3.org/2000/svg" viewBox="0 0 32 32">
    <path d="M31.6,29.3l-1.5-1.5v-.2c-.1,0-.2-.1-.2-.1l-.8-.8h-.2c0-.1-8.3-8.4-8.3-8.4h-.1c0-.1-5.1-5.3-5.1-5.3l-.2-.2L2.7.5C2.1-.2,1.1-.2.5.5S-.2,2.1.5,2.7l1.6,1.6c-.3.6-.5,1.4-.5,2.1v19.2c0,2.7,2.2,4.8,4.8,4.8h19.2c.7,0,1.4-.2,2-.5h0l1.5,1.6c.6.6,1.6.6,2.3,0,0,0,0,0,0,0,.6-.6.6-1.6,0-2.2ZM4.8,7.1l5.2,5.2c-.4.2-.8.5-1.1.8l-4.1,4.1V7.1ZM6.4,27.2c-.9,0-1.6-.7-1.6-1.6v-3.9l6.4-6.4c.5-.5,1.3-.5,1.8,0l12,11.9H6.4ZM12.3,4.8h13.4c.9,0,1.6.7,1.6,1.6v9.5h0c-.6-.6-1.6-.6-2.3,0s-.6,1.6,0,2.3l2.8,2.8c.6.6,1.6.6,2.3,0,0,0,0,0,0,0,.3-.3.5-.7.5-1.2h0V6.4c0-2.7-2.2-4.8-4.8-4.8h-13.4c-.9,0-1.6.7-1.6,1.6s.7,1.6,1.6,1.6Z"/>
</svg>