<svg id="phone" xmlns="http://www.w3.org/2000/svg" viewBox="0 0 32 32">
  <path d="M28 17.7c-.4 0-.7-.1-1.1-.2l-2.1-.6c-1.5-.6-3.3.1-4 1.6l-.4.7c-1.6-.9-3-2-4.3-3.2-1.3-1.3-2.3-2.7-3.2-4.3l.7-.5c1.5-.7 2.2-2.4 1.6-4-.3-.7-.5-1.4-.6-2.1 0-.4-.1-.7-.2-1.1-.3-2.3-2.3-4-4.7-4H4.9C2.2 0 0 2.1 0 4.8v.7C1.8 19.4 12.7 30.3 26.5 32h.6c1.2 0 2.3-.4 3.2-1.2 1-.9 1.6-2.2 1.6-3.6v-4.8c0-2.3-1.7-4.3-4-4.7Zm.8 9.6c0 .5-.2.9-.5 1.2-.4.3-.8.5-1.3.4C14.6 27.3 4.9 17.5 3.4 5.1c0-.5 0-1 .4-1.3.3-.3.7-.5 1.2-.5h4.8c.8 0 1.4.5 1.6 1.3 0 .4.1.9.2 1.3.2.8.4 1.7.7 2.5l-2.2 1c-.8.4-1.2 1.3-.8 2.1 2.3 5 6.3 9 11.2 11.3.4.2.8.2 1.2 0 .4-.1.7-.4.9-.8l1-2.3c.8.3 1.7.5 2.5.7.4 0 .9.2 1.3.2.8.2 1.3.8 1.3 1.6v5Z"/>
</svg>