<svg id="zoom" xmlns="http://www.w3.org/2000/svg" viewBox="0 0 32 32">
    <path d="M20.8,12.8h-4.8v-4.8c0-.9-.7-1.6-1.6-1.6s-1.6.7-1.6,1.6v4.8h-4.8c-.9,0-1.6.7-1.6,1.6s.7,1.6,1.6,1.6h4.8v4.8c0,.9.7,1.6,1.6,1.6s1.6-.7,1.6-1.6v-4.8h4.8c.9,0,1.6-.7,1.6-1.6s-.7-1.6-1.6-1.6ZM31.6,29.3l-5.9-5.9c5-6.2,4-15.3-2.2-20.2C17.2-1.8,8.1-.8,3.2,5.4-1.8,11.6-.8,20.7,5.4,25.6c5.3,4.2,12.8,4.2,18,0l5.9,5.9c.6.6,1.6.6,2.3,0,0,0,0,0,0,0,.6-.6.6-1.6,0-2.2ZM14.4,25.6c-6.2,0-11.2-5-11.2-11.2S8.2,3.2,14.4,3.2s11.2,5,11.2,11.2-5,11.2-11.2,11.2Z"/>
</svg>